# xmcd
#
# Track frame offsets:
#	150
#	1576
#	16484
#	32574
#	47600
#	65193
#	81242
#	97080
#	112026
#	127232
#
# Disc length: 1859 seconds
#
# Revision: 1
# Processed by: cddbd v1.5.2PL0 Copyright (c) Steve Scherf et al.
# Submitted via: audiograbber 1.83.01
#
DISCID=8307410a
DTITLE=Romana Reiff - all the letters
DYEAR=2009
DGENRE=Soul
TTITLE0=Intro
TTITLE1=Your Love Is
TTITLE2=Nothing Left But Me
TTITLE3=How To Make Me The Lady In Your Life
TTITLE4=Walk With Me
TTITLE5=Not My Day
TTITLE6=Lift Me Up
TTITLE7=Stay
TTITLE8=Sorry
TTITLE9=All The Letters
EXTD=Romana Reiff and Martin Gunkel  (produced 12/2008 - 01/2009)
EXTT0=
EXTT1=
EXTT2=
EXTT3=
EXTT4=
EXTT5=
EXTT6=
EXTT7=
EXTT8=
EXTT9=
PLAYORDER=
